<svg width="483" height="449" viewBox="0 0 483 449" fill="none" xmlns="http://www.w3.org/2000/svg">
<g clip-path="url(#clip0_3_45)">
<path d="M390.761 137.96C388.047 137.927 385.446 137.835 382.96 137.685C385.54 138.083 388.159 138.175 390.761 137.96Z" fill="#F2F2F2"/>
<path d="M403.794 297.002H0V298.314H403.794V297.002Z" fill="#3F3D56"/>
<path d="M164.249 142.149C163.773 140.484 170.432 155.744 168.848 155.928C161.632 156.755 145.644 160.482 140.618 162.489C140.392 162.463 140.165 162.437 139.946 162.404C139.407 162.345 138.881 162.26 138.362 162.161C126.66 159.95 117.807 150.351 117.567 138.763C117.554 138.599 117.554 138.428 117.554 138.264C117.552 137.464 117.594 136.665 117.68 135.869C117.79 134.783 117.979 133.706 118.246 132.647L118.219 132.641C113.56 128.271 115.523 120.167 121.461 116.749C124.041 115.267 126.902 114.34 129.861 114.026C130.664 113.939 131.47 113.895 132.278 113.894H139.859C141.428 113.557 143.018 113.327 144.619 113.205H144.632C159.895 112.044 171.93 121.335 170.805 132.641C170.798 132.654 170.785 132.667 170.778 132.68C170.452 133.166 170.166 133.625 169.913 134.065C169.667 134.478 169.46 134.872 169.281 135.246C167.889 138.133 171.466 141.766 169.094 142.444C165.941 143.346 177.389 172.988 164.906 172.988C170.978 174.712 165.563 146.742 164.249 142.149Z" fill="#2F2E41"/>
<path d="M233.895 428.667L243.739 428.584L248.096 389.78L233.569 389.902L233.895 428.667Z" fill="#FFB6B6"/>
<path d="M265.426 444.301C265.435 445.466 264.98 446.587 264.162 447.419C263.344 448.25 262.23 448.723 261.063 448.735L241.491 448.898L238.065 441.962L236.807 448.933L229.422 449L231.287 424.135L233.856 423.964L244.335 423.243L247.716 423.017L247.776 430.052L263.498 440.702C264.087 441.101 264.57 441.637 264.906 442.264C265.242 442.891 265.42 443.59 265.426 444.301Z" fill="#2F2E41"/>
<path d="M246.373 409.205C242.458 408.733 232.576 407.893 232.576 407.893C232.576 407.893 227.912 398.169 228.667 395.144C229.41 392.106 231.262 391.489 229.541 389.901C225.35 374.429 226.02 349.298 226.02 349.298C226.02 349.298 203.458 338.386 180.615 325.755C158.283 313.4 135.683 299.404 133.64 292.35C132.291 287.305 131.385 282.152 130.933 276.95C130.591 273.538 130.381 270.191 130.249 267.193C129.941 260.329 130.065 255.257 130.065 255.257L158.533 254.785L177.389 254.352H179.36V257.633L184.314 266.045C184.314 266.045 192.874 275.985 191.869 276.911C190.654 278.033 191.021 279.03 195.338 279.844C196.565 280.058 197.816 280.109 199.057 279.994C206.027 279.463 208.944 283.446 209.115 284.319C210.285 290.48 222.012 303.866 232.997 315.289H233.004C243.141 325.84 252.641 334.712 252.641 334.712L253.18 346.03L255.709 398.95C255.709 398.95 250.966 396.299 255.203 402.014C259.441 407.736 250.289 409.671 246.373 409.205Z" fill="#2F2E41"/>
<path d="M353.175 286.156L357.194 277.179L323.672 257.083L317.741 270.329L353.175 286.156Z" fill="#FFB6B6"/>
<path d="M380.525 264.02C381.589 264.496 382.421 265.376 382.838 266.464C383.255 267.553 383.222 268.762 382.747 269.827L374.755 287.67L367.014 287.897L372.839 291.94L369.829 298.675L347.963 286.639L348.876 284.235L352.578 274.417L353.778 271.252L360.209 274.124L376.446 264.275C377.054 263.906 377.743 263.69 378.454 263.645C379.164 263.601 379.875 263.729 380.525 264.02Z" fill="#2F2E41"/>
<path d="M335.932 264.431C335.909 264.482 335.882 264.528 335.859 264.57C334.027 267.928 331.021 275.696 330.834 276.175C330.829 276.184 330.826 276.193 330.825 276.203C330.825 276.203 320.907 275.693 318.373 273.876C315.834 272.046 319.676 274.94 313.82 271.113C310.792 269.124 300.421 266.018 291.131 263.481C282.489 261.12 274.788 259.264 274.788 259.264C274.788 259.264 267.981 265.452 258.118 274.003L258.114 274.007C248.953 281.932 237.149 291.897 225.709 300.82C201.218 308.015 175.368 314.248 168.906 310.746C164.363 308.161 160.055 305.185 156.03 301.852L162.684 284.433L180.282 266.027L198.806 258.509L206.053 255.567L216.2 251.454L271.138 229.161L331.978 250.208C331.978 250.208 327.74 253.627 334.637 251.823C341.44 250.048 337.846 260.831 335.932 264.431Z" fill="#2F2E41"/>
<path d="M143.882 163.146H163.592L166.695 169.987L179.895 175.861C181.611 176.626 183.124 177.783 184.311 179.239C185.497 180.695 186.324 182.41 186.726 184.244C191.479 205.944 185.466 210.452 185.273 217.607C184.616 241.885 181.231 246.714 181.609 252.707C181.722 254.501 182.819 261.593 186.345 260.925C189.872 260.257 187.971 263.061 188.805 264.151C189.526 265.093 193.319 263.843 190.938 266.971C188.558 270.1 198.736 278.63 192.5 278.63C180.674 278.63 157.022 284.535 147.824 284.535C138.626 284.535 131.518 287.259 127.457 287.16C124.982 287.099 125.756 275.573 126.745 265.591C126.969 263.33 131.315 263.389 127.415 259.199C123.515 255.008 128.106 252.83 128.114 251.727C128.123 250.555 130.325 247.604 127.577 242.776C124.829 237.948 127.362 239.946 127.243 238.43C126.323 226.747 125.005 211.85 125.005 211.85L119.195 195.519C117.71 191.344 117.906 186.757 119.743 182.724C121.579 178.691 124.912 175.529 129.038 173.903L135.854 171.218L143.882 163.146Z" fill="white"/>
<path d="M282.308 157.122C281.87 157.938 281.26 158.649 280.519 159.207C279.779 159.764 278.926 160.154 278.02 160.35C277.114 160.546 276.176 160.543 275.271 160.341C274.366 160.139 273.516 159.743 272.78 159.181L245.014 174.88L238.778 168.278L271.892 149.873C272.932 148.705 274.364 147.958 275.919 147.774C277.473 147.591 279.04 147.983 280.324 148.877C281.608 149.77 282.519 151.103 282.885 152.623C283.25 154.142 283.045 155.743 282.308 157.122Z" fill="#FFB6B6"/>
<path d="M157.294 194.179L156.871 199.234L212.147 198.525L267.168 167.632L259.124 155.268L210.764 175.575L176.392 176.271C171.555 176.369 166.926 178.254 163.399 181.561C159.872 184.868 157.697 189.364 157.294 194.179Z" fill="white"/>
<path d="M150.624 159.541C160.537 159.541 168.574 151.515 168.574 141.614C168.574 131.713 160.537 123.686 150.624 123.686C140.71 123.686 132.673 131.713 132.673 141.614C132.673 151.515 140.71 159.541 150.624 159.541Z" fill="#FFB6B6"/>
<path d="M170.805 133.619C170.505 133.776 170.213 133.92 169.913 134.065C169.6 134.216 169.287 134.367 168.975 134.504C162.964 137.227 158.071 137.529 155.103 133.619C155.023 131.561 154.56 129.536 153.738 127.647C153.883 129.758 153.326 131.857 152.154 133.619H146.176C140.019 137.7 136.857 138.126 141.131 151.525C142.322 155.259 147.06 176.984 145.196 180.206C144.657 180.147 138.881 162.26 138.362 162.161C126.66 159.95 117.807 150.351 117.567 138.763C117.58 138.172 117.62 137.582 117.68 137.004C118.451 135.847 119.298 134.742 120.216 133.697C120.212 130.6 120.925 127.543 122.3 124.767C124.039 121.249 126.751 118.303 130.114 116.276C132.119 115.305 134.209 114.521 136.358 113.934C136.411 113.921 136.458 113.907 136.511 113.894C137.17 113.717 137.842 113.553 138.515 113.415C139.904 113.122 141.308 112.91 142.722 112.779C142.821 112.772 142.921 112.766 143.014 112.766C143.579 112.767 144.133 112.919 144.619 113.205C144.625 113.205 144.625 113.212 144.632 113.212C144.979 113.415 145.282 113.685 145.524 114.006C145.949 114.547 146.179 115.215 146.176 115.902H152.833C153.079 115.902 153.325 115.909 153.572 115.922C158.014 116.074 162.24 117.875 165.423 120.975C168.605 124.074 170.515 128.248 170.778 132.68C170.798 132.995 170.805 133.304 170.805 133.619Z" fill="#2F2E41"/>
<path d="M126.143 136.899C132.674 136.899 137.969 131.611 137.969 125.088C137.969 118.565 132.674 113.278 126.143 113.278C119.612 113.278 114.317 118.565 114.317 125.088C114.317 131.611 119.612 136.899 126.143 136.899Z" fill="#2F2E41"/>
<path d="M140.597 115.902C140.823 122.421 135.302 127.713 128.771 127.713C125.635 127.713 122.627 126.469 120.409 124.254C118.191 122.039 116.945 119.035 116.945 115.902C116.945 109.379 124.855 109.312 128.771 104.091C134.311 96.7064 140.293 107.111 140.597 115.902Z" fill="#2F2E41"/>
<path d="M156.059 300.664C154.223 273.451 159.599 247.853 174.528 224.395C174.904 222.852 175.877 221.521 177.234 220.693C178.591 219.865 180.222 219.609 181.768 219.981L239.441 233.911C240.986 234.286 242.32 235.258 243.148 236.614C243.977 237.969 244.233 239.598 243.861 241.142L225.392 317.411C225.017 318.954 224.044 320.285 222.686 321.113C221.329 321.94 219.699 322.196 218.153 321.825L160.479 307.895C158.934 307.52 157.601 306.548 156.772 305.192C155.944 303.837 155.687 302.208 156.059 300.664Z" fill="#F2F2F2"/>
<path opacity="0.2" d="M167.362 306.444C165.816 306.068 164.483 305.097 163.655 303.741C162.826 302.386 162.57 300.757 162.942 299.213C161.105 272 166.481 246.402 181.41 222.944C181.662 221.932 182.177 221.005 182.903 220.255L181.768 219.981C180.222 219.609 178.591 219.865 177.234 220.693C175.877 221.52 174.904 222.852 174.528 224.395C159.599 247.853 154.223 273.451 156.059 300.664C155.687 302.208 155.944 303.836 156.772 305.192C157.601 306.547 158.934 307.519 160.479 307.894L218.152 321.825C219.178 322.069 220.249 322.038 221.259 321.735C222.268 321.432 223.179 320.868 223.9 320.1L167.362 306.444Z" fill="black"/>
<path d="M219.579 274.337L180.906 265.109C180.291 264.962 179.759 264.576 179.429 264.038C179.098 263.5 178.995 262.852 179.142 262.238C179.289 261.624 179.674 261.093 180.212 260.762C180.751 260.431 181.399 260.328 182.014 260.474L220.688 269.702C221.302 269.85 221.831 270.236 222.161 270.774C222.49 271.311 222.593 271.958 222.446 272.571C222.299 273.184 221.915 273.714 221.378 274.045C220.841 274.376 220.194 274.481 219.579 274.337L219.579 274.337Z" fill="white"/>
<path d="M192.454 254.43L183.946 252.4C183.331 252.254 182.799 251.871 182.466 251.333C182.134 250.796 182.029 250.149 182.174 249.535C182.319 248.92 182.702 248.388 183.239 248.056C183.777 247.723 184.424 247.617 185.04 247.761L185.055 247.765L193.563 249.795C194.176 249.943 194.706 250.329 195.035 250.867C195.365 251.404 195.468 252.051 195.321 252.664C195.174 253.277 194.79 253.807 194.253 254.138C193.715 254.469 193.069 254.574 192.454 254.43V254.43Z" fill="white"/>
<path d="M214.705 294.713L176.031 285.485C175.417 285.337 174.888 284.951 174.558 284.414C174.228 283.876 174.125 283.229 174.272 282.616C174.419 282.002 174.803 281.472 175.341 281.141C175.878 280.81 176.525 280.706 177.14 280.85L215.814 290.078C216.119 290.15 216.407 290.28 216.662 290.463C216.917 290.646 217.133 290.877 217.298 291.143C217.463 291.409 217.574 291.706 217.625 292.015C217.675 292.324 217.664 292.64 217.592 292.945C217.521 293.25 217.389 293.537 217.206 293.791C217.022 294.045 216.791 294.261 216.524 294.426C216.257 294.59 215.96 294.701 215.651 294.751C215.341 294.8 215.025 294.789 214.72 294.717L214.705 294.713Z" fill="white"/>
<path d="M217.142 284.525L178.468 275.297C177.853 275.151 177.32 274.767 176.989 274.229C176.657 273.691 176.553 273.043 176.699 272.428C176.845 271.813 177.23 271.282 177.769 270.95C178.307 270.619 178.956 270.515 179.572 270.661L179.577 270.662L218.251 279.89C218.865 280.039 219.394 280.424 219.724 280.962C220.054 281.5 220.157 282.146 220.01 282.76C219.863 283.373 219.479 283.903 218.941 284.234C218.404 284.565 217.757 284.67 217.142 284.525L217.142 284.525Z" fill="white"/>
<path d="M208.967 236.667C214.46 236.667 218.914 232.219 218.914 226.732C218.914 221.245 214.46 216.797 208.967 216.797C203.473 216.797 199.019 221.245 199.019 226.732C199.019 232.219 203.473 236.667 208.967 236.667Z" fill="#3F3D56"/>
<path d="M158.81 306.352C157.998 305.904 157.294 305.285 156.745 304.539C156.197 303.792 155.817 302.935 155.633 302.028C155.448 301.121 155.463 300.184 155.677 299.283C155.891 298.382 156.298 297.538 156.87 296.81L141.509 268.88L148.2 262.737L166.201 296.043C167.357 297.096 168.086 298.536 168.25 300.091C168.414 301.645 168.001 303.205 167.09 304.476C166.179 305.747 164.833 306.64 163.307 306.985C161.78 307.331 160.18 307.105 158.81 306.352H158.81Z" fill="#FFB6B6"/>
<path d="M140.868 182.722L124.347 181.13C123.576 181.056 122.798 181.143 122.063 181.387C121.328 181.63 120.653 182.025 120.079 182.545C119.506 183.065 119.048 183.699 118.735 184.406C118.421 185.113 118.259 185.878 118.259 186.651V235.753L148.481 291.097L160.964 283.223L141.254 234.667L140.868 182.722Z" fill="white"/>
<path d="M271.298 178.737C275.128 151.732 285.682 127.795 305.14 107.922C305.827 106.49 307.054 105.388 308.553 104.858C310.053 104.328 311.701 104.414 313.137 105.097L366.686 130.623C368.12 131.308 369.224 132.534 369.754 134.032C370.285 135.529 370.199 137.175 369.515 138.609L335.673 209.424C334.986 210.856 333.759 211.959 332.26 212.488C330.76 213.018 329.112 212.932 327.676 212.25L274.127 186.724C272.693 186.038 271.589 184.812 271.059 183.315C270.528 181.818 270.614 180.171 271.298 178.737Z" fill="#F2F2F2"/>
<path opacity="0.2" d="M281.161 186.724C279.727 186.038 278.623 184.812 278.093 183.315C277.563 181.817 277.648 180.171 278.332 178.737C282.162 151.732 292.716 127.795 312.174 107.922C312.63 106.984 313.325 106.182 314.191 105.599L313.137 105.097C311.701 104.414 310.053 104.328 308.554 104.858C307.054 105.388 305.827 106.49 305.14 107.922C285.682 127.795 275.129 151.732 271.298 178.737C270.614 180.171 270.529 181.817 271.059 183.315C271.589 184.812 272.693 186.038 274.127 186.724L327.676 212.25C328.629 212.7 329.684 212.891 330.734 212.802C331.784 212.714 332.792 212.35 333.656 211.747L281.161 186.724Z" fill="black"/>
<path d="M338.893 166.08L302.961 149.074C302.389 148.803 301.948 148.317 301.736 147.722C301.523 147.126 301.556 146.471 301.827 145.9C302.098 145.329 302.585 144.889 303.18 144.676C303.776 144.464 304.432 144.497 305.004 144.767L340.936 161.773C341.505 162.045 341.944 162.532 342.155 163.126C342.366 163.72 342.333 164.374 342.062 164.943C341.792 165.513 341.307 165.953 340.713 166.166C340.118 166.379 339.464 166.348 338.893 166.08L338.893 166.08Z" fill="white"/>
<path d="M316.469 141.007L308.564 137.266C308.28 137.133 308.025 136.945 307.814 136.714C307.603 136.483 307.439 136.212 307.333 135.917C307.226 135.623 307.179 135.31 307.193 134.998C307.208 134.685 307.284 134.378 307.417 134.095C307.551 133.811 307.739 133.557 307.971 133.346C308.202 133.135 308.474 132.972 308.768 132.866C309.063 132.76 309.377 132.713 309.69 132.728C310.003 132.743 310.31 132.819 310.594 132.953L310.607 132.959L318.512 136.701C319.082 136.972 319.521 137.459 319.732 138.053C319.944 138.647 319.911 139.301 319.64 139.871C319.37 140.441 318.884 140.881 318.289 141.094C317.695 141.307 317.04 141.275 316.469 141.007Z" fill="white"/>
<path d="M329.91 185.012L293.978 168.005C293.408 167.734 292.969 167.247 292.758 166.653C292.546 166.059 292.579 165.405 292.85 164.835C293.12 164.265 293.606 163.825 294.2 163.612C294.795 163.399 295.45 163.431 296.021 163.699L331.953 180.705C332.236 180.838 332.491 181.026 332.702 181.257C332.913 181.489 333.076 181.759 333.182 182.054C333.289 182.348 333.336 182.66 333.321 182.973C333.307 183.285 333.23 183.592 333.097 183.875C332.964 184.158 332.776 184.413 332.544 184.623C332.313 184.834 332.042 184.997 331.747 185.103C331.452 185.209 331.14 185.256 330.827 185.242C330.514 185.227 330.207 185.151 329.923 185.018L329.91 185.012Z" fill="white"/>
<path d="M334.401 175.546L298.469 158.54C297.897 158.27 297.456 157.784 297.242 157.189C297.029 156.594 297.061 155.939 297.331 155.367C297.602 154.796 298.088 154.355 298.684 154.142C299.279 153.929 299.935 153.961 300.508 154.231L300.513 154.233L336.444 171.239C337.014 171.511 337.453 171.998 337.664 172.592C337.875 173.186 337.842 173.84 337.572 174.41C337.301 174.979 336.816 175.419 336.221 175.632C335.627 175.845 334.972 175.814 334.401 175.546L334.401 175.546Z" fill="white"/>
<path d="M338.353 127.247C343.847 127.247 348.301 122.799 348.301 117.313C348.301 111.826 343.847 107.378 338.353 107.378C332.859 107.378 328.405 111.826 328.405 117.313C328.405 122.799 332.859 127.247 338.353 127.247Z" fill="#3F3D56"/>
<path d="M424.195 213.722C413.407 190.348 408.682 165.157 411.991 137.559C411.48 134.348 413.272 131.131 415.997 130.367L464.84 116.738C467.566 115.981 470.192 117.966 470.709 121.175L482.913 197.338C483.424 200.549 481.632 203.766 478.907 204.53L430.064 218.159C427.338 218.915 424.713 216.931 424.195 213.722Z" fill="#F2F2F2"/>
<path opacity="0.2" d="M434.819 213.763C432.093 214.52 429.467 212.535 428.95 209.327C418.161 185.952 413.437 160.761 416.746 133.163C416.59 132.139 416.662 131.092 416.958 130.098L415.997 130.366C413.272 131.131 411.48 134.348 411.991 137.558C408.682 165.156 413.407 190.347 424.195 213.722C424.713 216.931 427.338 218.915 430.064 218.158L478.907 204.53C479.837 204.218 480.673 203.676 481.336 202.955C482 202.233 482.469 201.355 482.701 200.403L434.819 213.763Z" fill="black"/>
<path d="M463.617 161.652L430.904 170.891C429.819 171.196 428.773 170.408 428.567 169.131C428.449 168.544 428.544 167.934 428.834 167.41C429.125 166.886 429.591 166.482 430.152 166.269L462.865 157.029C463.95 156.727 464.995 157.518 465.199 158.795C465.315 159.381 465.22 159.989 464.931 160.512C464.641 161.035 464.176 161.438 463.617 161.652H463.617Z" fill="white"/>
<path d="M436.039 156.184L428.842 158.216C427.758 158.527 426.709 157.744 426.498 156.469C426.378 155.881 426.471 155.27 426.76 154.744C427.05 154.218 427.516 153.812 428.077 153.597L428.09 153.594L435.287 151.561C436.371 151.259 437.416 152.05 437.62 153.327C437.737 153.913 437.641 154.521 437.352 155.044C437.063 155.567 436.597 155.97 436.039 156.184Z" fill="white"/>
<path d="M466.923 181.973L434.21 191.213C433.125 191.515 432.08 190.724 431.876 189.447C431.76 188.861 431.855 188.253 432.145 187.73C432.434 187.207 432.899 186.803 433.458 186.59L466.171 177.351C467.255 177.04 468.304 177.823 468.515 179.098C468.635 179.686 468.542 180.297 468.253 180.823C467.963 181.349 467.497 181.755 466.936 181.969L466.923 181.973Z" fill="white"/>
<path d="M465.27 171.812L432.557 181.052C431.473 181.36 430.425 180.575 430.216 179.299C430.097 178.711 430.191 178.1 430.481 177.574C430.772 177.049 431.239 176.644 431.8 176.431L431.805 176.429L464.518 167.19C465.603 166.888 466.648 167.678 466.852 168.956C466.968 169.542 466.873 170.15 466.584 170.673C466.294 171.195 465.829 171.599 465.27 171.812L465.27 171.812Z" fill="white"/>
<path d="M447.329 125.164C448.033 119.722 444.917 114.835 440.369 114.248C435.821 113.661 431.563 117.597 430.859 123.038C430.155 128.48 433.271 133.367 437.819 133.954C442.367 134.541 446.625 130.605 447.329 125.164Z" fill="#3F3D56"/>
</g>
<defs>
<clipPath id="clip0_3_45">
<rect width="483" height="449" fill="white"/>
</clipPath>
</defs>
</svg>
